<svg xmlns="http://www.w3.org/2000/svg" viewBox="0 0 64 64">
  <defs>
    <linearGradient id="bg" x1="8" y1="4" x2="56" y2="60" gradientUnits="userSpaceOnUse">
      <stop stop-color="#122a47"/>
      <stop offset="1" stop-color="#050b14"/>
    </linearGradient>
    <linearGradient id="cyan" x1="10" y1="20" x2="54" y2="44" gradientUnits="userSpaceOnUse">
      <stop stop-color="#72fff1"/>
      <stop offset="1" stop-color="#20c6c7"/>
    </linearGradient>
    <linearGradient id="violet" x1="54" y1="20" x2="10" y2="44" gradientUnits="userSpaceOnUse">
      <stop stop-color="#b5aaff"/>
      <stop offset="1" stop-color="#7968ff"/>
    </linearGradient>
    <filter id="glow" x="-30%" y="-30%" width="160%" height="160%">
      <feGaussianBlur stdDeviation="1.4" result="blur"/>
      <feMerge>
        <feMergeNode in="blur"/>
        <feMergeNode in="SourceGraphic"/>
      </feMerge>
    </filter>
  </defs>
  <rect x="2" y="2" width="60" height="60" rx="17" fill="url(#bg)"/>
  <rect x="2.75" y="2.75" width="58.5" height="58.5" rx="16.25" fill="none" stroke="#fff" stroke-opacity=".12" stroke-width="1.5"/>
  <path d="M11 20h10c8 0 11 5 11 12s3 12 11 12h10" fill="none" stroke="url(#cyan)" stroke-width="5" stroke-linecap="round" filter="url(#glow)"/>
  <path d="M53 20H43c-8 0-11 5-11 12s-3 12-11 12H11" fill="none" stroke="url(#violet)" stroke-width="5" stroke-linecap="round" filter="url(#glow)"/>
  <circle cx="32" cy="32" r="3.5" fill="#f6fffe"/>
  <circle cx="32" cy="32" r="7" fill="none" stroke="#fff" stroke-opacity=".16"/>
</svg>
